Patient4_TMGait_0pt4_01_right_02_EMG.mot
version=1
nRows=30
nColumns=33
inDegrees=no
endheader
time	1LAddLong	2LGlutMax	3LGlutMed	4LIliopsoas	5LSemiMemb	6LBicFemLong	7LRecFem	8LVastMed	9LVastLat	10LGasMed	11LTibAnt	12lTibPost	13LPeroneusLong	14LSol	15LExtDigLong	16LFlexDigLong	17RAddLong	18RGlutMax	19RGlutMed	20RIliopsoas	21RSemiMemb	22RBicFemLong	23RRecFem	24RVastMed	25RVastLat	26RGasMed	27RTibAnt	28RTibPost	29RPeroneusLong	30RSol	31RExtDigLong	32RFlexDigLong
3.525	0.001831	0.06012	0.30609	0.003052	0.025024	0.032501	0.18265	0.001221	-0.046234	-0.22293	-0.047302	0.022278	0.24307	0.40604	0.039368	-0.014191	-0.031891	0.026093	0.30411	0.04425	0.26581	-0.012665	-0.017548	-0.043182	0.032043	0.006561	-0.31143	0.003967	0.52856	0.059052	0.001831	0.001984
3.526	0.00412	-0.005646	0.16495	0.009613	0.027618	0.022736	0.15106	-0.000458	-0.092468	-0.32547	0.026398	0.032654	-0.34424	0.019531	0.13657	-0.003052	-0.013428	0.008545	0.49789	-0.004883	0.14053	0.006256	0.041199	-0.082703	0.030212	-0.002747	-0.18601	0.003204	0.057831	0.095978	-0.000458	-0.005951
3.527	0.017242	0.002441	0.12177	-0.009766	0.022278	0.038757	0.040283	0.002441	-0.039978	-0.14664	-0.010681	0.021362	-0.60211	0.014343	0.078735	0.009003	0.000305	0.02533	0.64117	-0.060883	0.01236	-0.026398	0.067291	-0.067749	0.045319	-0.009613	0.029449	0.000305	-0.29282	-0.000916	-0.001984	-0.000916
3.528	0.00885	-0.004578	0.15121	-0.007935	0.011597	0.017853	-0.1033	-0.001221	0.001221	-0.085907	-0.008545	0.007019	0.1648	0.21454	0.037231	0.011292	-0.000153	-0.017853	0.17258	-0.020447	-0.17548	-0.032959	0.10132	-0.10788	0.02655	-0.007324	-0.031891	0.000305	-0.003967	-0.076752	-0.00061	-0.001831
3.529	0.013733	0.016174	0.12589	-0.004272	0.012512	0.005798	-0.10574	-0.001678	-0.006714	-0.075684	0.002289	-0.002747	0.13779	0.13367	-0.014038	0.000153	0.012817	0.027466	0.16495	-0.038757	-0.27008	0.004425	0.10727	-0.087891	0.008392	-0.009308	-0.093079	-0.001373	-0.52826	-0.017548	-0.00412	-0.001678
3.53	0.011749	-0.008545	0.050201	-0.010986	0.0177	0.028534	0.001526	-0.000458	-0.097198	-0.016327	-0.003357	-0.003662	-0.056763	-0.061035	-0.028839	-0.001678	0.001526	0.053558	0.032806	-0.033264	-0.28381	0.048523	0.15884	-0.068665	0.025482	0.002899	-0.14221	0.000153	-0.72662	-0.087128	-0.007935	0.005646
3.531	-0.018005	0.008392	0.12848	0.005188	0.015717	0.034332	-0.013123	-0.001526	-0.078583	-0.020142	0.020905	-0.006561	-0.2803	-0.056	0.090179	-0.000153	0.006409	0.022888	-0.072327	-0.032349	0.15778	0.067596	0.085144	-0.1442	0.005188	0.000763	-0.16281	-0.000916	-0.26352	-0.085449	-0.003357	0.003815
3.532	0.003204	0.015259	0.24796	-0.007172	-0.000763	0.030823	-0.018311	0.005188	-0.079651	-0.032349	-0.00412	-0.006714	-0.24139	-0.14694	-0.01236	0.008698	0.032654	0.017853	0.043182	-0.045319	0.19638	0.053101	-0.070953	-0.17303	0.00824	0.000458	-0.27405	-0.003357	-0.024567	-0.058594	-0.009155	0.003357
3.533	0.021973	0.01297	0.16464	-0.00061	0.009155	0.013733	0.025635	0.015411	-0.079498	-0.017242	-0.001984	-0.007629	0.021057	0.015869	-0.22217	-0.00824	0.046844	-0.048981	0.112	-0.026703	-0.09491	0.05127	-0.12375	-0.11322	0.028839	0.010529	0.010986	-0.00473	0.51056	-0.071564	-0.001678	0.008087
3.534	0.021973	0.027008	0.092468	0.018463	0.012054	0.03952	0.030365	0.021515	-0.063934	-0.011902	0.000305	0	0.215	0.26642	-0.15366	0.000763	0.032959	-0.012054	0.12604	-0.012512	-0.19501	0.10346	-0.1915	-0.14145	0.029602	0.011749	0.15961	-0.001373	0.27557	-0.057983	-0.002899	0.001221
3.535	0.027618	0.020599	-0.033722	0.003204	0.00061	0.033569	0.006866	0.027161	0.038605	-0.037079	-0.043488	-0.004578	0.035706	0.3183	0.065765	-0.00824	-0.001831	0.006561	0.16235	-0.034943	-0.078125	0.12329	-0.20432	-0.1062	0.026855	0.011749	0.11398	-0.000305	0.12451	-0.079498	-0.00412	0.006256
3.536	0.023346	0.047913	0.011292	-0.004578	0.001221	0.012054	-0.10864	0.026398	0.064087	-0.042725	0.019073	-0.00946	-0.26245	0.17136	0.12268	-0.008392	0.019226	0.018005	0.16922	-0.044708	0.095978	0.13748	-0.10757	-0.15884	0.022278	0.019379	-0.030975	0.00061	0.25543	-0.060883	-0.002747	0.000458
3.537	0.013733	0.027313	-0.012207	-0.006256	0.004578	0.00473	-0.16159	0.014648	0.159	0.021667	0.089569	-0.003967	-0.17303	0.036316	0.091248	-0.002289	-0.021667	-0.007019	0.21668	-0.055389	0.067444	0.14801	-0.021362	-0.083466	-0.00412	-0.00061	0.082092	-0.001526	0.06012	0.055695	-0.000153	0.001221
3.538	0.019379	-0.020599	-0.091248	0.007629	-0.013428	-0.024872	-0.1355	0.006866	0.18036	0.026703	0.030823	-0.006256	0.21316	0.09903	0.37354	-0.008087	-0.040436	-0.027618	0.026398	-0.036621	0.2829	0.1796	0.048828	-0.10651	0.025787	-0.011597	0.23392	-0.002441	-0.24384	-0.000305	0.000458	-0.005035
3.539	0.014191	-0.032806	-0.001068	0.020294	-0.023499	-0.099335	-0.10086	-0.008545	0.21393	0.056458	0.069122	-0.006714	0.94147	0.13184	-0.22934	-0.006714	-0.024261	0.002594	-0.21332	-0.0177	0.15533	0.12177	0.12955	-0.04837	0.020905	-0.002441	0.26611	-0.000153	-0.3627	-0.027771	-0.00473	-0.001831
3.54	0.013275	-0.027466	-0.014801	-0.001068	0.010223	-0.081024	0.003052	-0.013123	0.14587	0.087738	0.10712	-0.006866	0.043945	0.043335	-0.054626	0.001678	0.008392	0.007782	-0.14984	-0.096588	-0.065765	0.06012	0.14786	-0.037994	0.006104	0.013885	0.30853	0.001221	-0.37506	-0.029907	-0.008392	-0.007477
3.541	0.000153	-0.053864	-0.14816	-0.000305	0.032349	-0.005798	0.040436	0.011292	-0.093536	0.08667	0.11169	-0.00351	-0.26489	0.10208	-0.061798	0.004578	0.021667	-0.028839	0.13412	-0.19333	-0.074005	0.043945	0.12955	-0.030975	0.002747	0.01297	0.098877	-0.004272	0.50766	0.1001	-0.001984	-0.007782
3.542	0.027008	-0.033112	-0.00824	-0.000305	0.025787	0.043488	-0.024261	0.009613	-0.041351	0.04715	0.024414	0.003357	0.22201	0.005341	-0.065155	0.005798	0.001221	0.066528	0.31799	-0.1683	-0.11215	0.046539	0.040283	0.006866	0.019226	0.021667	0.051117	0.001526	0.4155	0.14954	-0.001068	0.003052
3.543	0.046234	-0.037384	-0.004272	-0.009766	0.022583	0.090485	-0.10452	0.014801	0.076447	0.04837	-0.081482	-0.000153	-0.034027	0.12451	0.10193	0.000763	0.011749	0.001984	0.078583	0.10819	-0.05188	0.036469	0.001678	-0.06546	0.002136	0.016785	-0.086823	-0.003357	0.15152	0.068817	-0.00412	0.000305
3.544	0.006714	-0.024261	-0.012817	0.002441	0.014038	0.13199	-0.10498	0.01236	0.13473	0.042419	-0.21011	0.003052	0.29846	0.16708	0.085602	-0.000458	0.00351	-0.005188	0.000916	0.24109	0.015411	0.10208	0.021515	-0.072632	0.014191	0.02121	-0.10132	-0.001526	-0.078278	0.010071	-0.002747	-0.005798
3.545	0.0177	-0.054932	-0.049896	-0.003662	0.008087	-0.016937	-0.095978	0.012817	-0.14603	0.045166	-0.13794	-0.002594	0.25864	0.005798	-0.002441	-0.006256	-0.009155	-0.005798	-0.050201	0.23468	0.003815	0.14526	0.041809	-0.11322	0.01236	0.027161	-0.005188	-0.005951	-0.34454	-0.024567	-0.003052	-0.003052
3.546	0.007629	-0.025177	-0.048828	-0.003052	0.010986	-0.21484	-0.094604	0.012512	-0.27039	0.035706	-0.11154	-0.001831	-0.48523	-0.032654	-0.12985	-0.003967	-0.007782	-0.011597	-0.20447	0.11826	-0.032959	0.12634	0.065613	-0.047302	0.001526	0.034943	0.13748	0.000305	-0.21622	-0.031586	-0.003967	0.000916
3.547	0.011902	-0.012512	-0.030212	0.005035	0.006714	-0.13397	-0.043945	0.012665	-0.21515	0.036011	0.028229	0.002441	-0.17487	-0.02121	0.32059	-0.007782	0.026855	-0.007935	-0.20935	0.041504	0.005646	0.055542	0.12329	-0.04364	0.009766	0.039063	0.27115	-0.005035	0.24307	0.006561	-0.00351	0.005798
3.548	0.003357	0.007324	-0.016327	0.000153	0.005188	-0.076752	-0.034485	0.015259	-0.095978	0.010071	0.1268	0.00473	-0.17075	-0.10712	-0.072327	-0.007629	0.055084	0.021667	0.065155	0.00885	-0.037842	0.037537	0.18402	-0.06958	0.013885	0.045319	0.37033	-0.000916	0.18768	-0.022583	-0.001221	0.006866
3.549	0.00885	0.019379	-0.023651	-0.020447	0.018311	-0.041046	-0.046997	-0.001678	-0.036316	0.006409	0.051422	-0.001373	0.025635	-0.093079	-0.51636	-0.001678	0.036163	0.007935	0.37277	0.091248	-0.10376	0.046387	0.17136	-0.07309	0.037994	0.053406	0.3714	0.00824	-0.10025	-0.076904	-0.000916	0.002441
3.55	-0.000458	0.013733	-0.058289	-0.001831	-0.000153	0.097351	-0.002136	-0.003815	-0.011902	0.000916	-0.044098	0.00351	0.18494	-0.040894	-0.007477	0.003815	0.039673	-0.036469	0.48096	0.09964	-0.27451	0.014954	0.17761	-0.10971	0.025635	0.038757	0.10193	-0.001373	0.18646	-0.14175	-0.002136	0.006409
3.551	0.007782	0.043945	-0.009918	0.013275	0.010071	0.11124	-0.034485	-0.000763	0.039063	0.053406	0.037079	-0.003357	-0.094604	-0.033875	0.19974	-0.005646	0.036926	-0.029602	0.12054	0.03418	-0.38879	0.033569	0.15106	-0.12314	0.011749	0.016327	0.00824	-0.003815	0.093536	-0.059662	-0.001221	0.003052
3.552	0.010223	0.082703	0.11032	0.010834	0.004272	0.159	-0.019379	-0.007477	0.04715	0.013428	0.024719	-0.000458	0.31158	0.058746	0.25909	-0.005493	0.038757	-0.003357	-0.10208	-0.019989	-0.29343	0.080719	0.081482	-0.16159	0.0177	0.006561	0.004578	-0.006714	0.289	-0.000153	-0.000916	0.00946
3.553	0.01236	0.050964	0.046692	0.012512	0.011139	0.011902	-0.011444	-0.002899	0.035553	0.035858	0.21225	0.001221	0.16739	0.030518	-0.15366	-0.003662	0.020752	-0.002747	-0.078125	-0.013123	0.23727	0.10391	-0.005493	-0.1294	0.031586	0.009308	-0.20721	-0.000153	0.25696	-0.13001	-0.005341	-0.003052
3.554	0.010071	0.0177	-0.068054	0.010376	0.003815	-0.002899	0.012665	-0.002289	0.005646	0.065155	0.25375	0.000916	0.15701	0.08728	-0.012207	0.006409	0.006256	-0.02655	-0.13504	-0.024261	0.33691	0.1918	-0.090027	-0.050507	0.030518	0.022736	-0.30701	-0.00351	0.13458	-0.13473	-0.004272	-0.00473
